<svg>
<g>
	<path fill="#C3DEC0" d="M591.997,629.592c0.108-9.011-6.717-19.266-12.171-28.987c-5.234-9.333-10.806-27.354-13.396-42.534
		c-1.993-9.819,1.458-32.5,1.458-43.662s6.356-36.896-14.365-48.111c-7.103-3.845-13.232-5.081-18.803-4.664
		c-8.219,0.615-15.223,4.829-22.348,9.569c-10.69,7.36-18.441,20.922-24.562,32.996c-1.572,3.097-3.036,6.096-4.412,8.864
		c-10.542,21.189-27.595,32.662-43.098,40.413c-12.942,6.471-22.209,10.349-27.626,18.309c-0.939,1.383-1.764,2.887-2.468,4.552
		c-0.148,0.4-0.273,0.791-0.378,1.166c-0.532,1.879-0.797,3.793-0.796,5.738c0.002,6.066,2.593,12.436,7.744,19.007
		c5.252,6.704,13.37,13.838,24.123,21.202c9.324,6.384,20.984,12.198,34.661,17.273c11.76,4.369,25.331,8.313,40.329,11.72
		c7.265,1.652,15.654,2.526,24.262,2.526c11.958,0,23.464-1.631,32.403-4.585c12.648-4.186,16.979-10.049,18.176-14.815
		C591.583,633.656,591.972,631.657,591.997,629.592z M625.032,577.085h-0.007v-0.007h0.007V577.085z"/>
	<path fill="none" stroke="#9ABD9D" stroke-linecap="round" stroke-linejoin="round" d="M441.541,558.438
		c29.559-3.101,89.089,5.788,130.224,37.413 M561.016,563.604c-29.559-15.916-68.419-24.804-88.056-23.771"/>
</g>
</svg>
